<svg version="1.1" id="Layer_1" xmlns="http://www.w3.org/2000/svg" xmlns:xlink="http://www.w3.org/1999/xlink" x="0px" y="0px"
	 width="100%" viewBox="0 0 200 200" enable-background="new 0 0 200 200" xml:space="preserve">
<path fill="#E30613" opacity="1.000000" stroke="none" 
	d="
M100.000000,201.000000 
	C66.687195,201.000000 33.874397,201.000000 1.030797,201.000000 
	C1.030797,134.395569 1.030797,67.791107 1.030797,1.093328 
	C67.562645,1.093328 134.125458,1.093328 200.844147,1.093328 
	C200.844147,67.666382 200.844147,134.333145 200.844147,201.000000 
	C167.458054,201.000000 133.979034,201.000000 100.000000,201.000000 
M106.637192,137.361496 
	C107.592026,137.571945 108.546516,137.964249 109.501747,137.966049 
	C129.105972,138.002838 148.710327,138.014267 168.314407,137.950806 
	C169.551834,137.946808 170.787155,137.289886 172.598740,136.486664 
	C173.310699,134.580597 174.626694,132.679199 174.641449,130.767776 
	C174.793121,111.102676 174.626923,91.434959 174.812027,71.770432 
	C174.856369,67.059906 173.065796,65.755608 168.589432,65.887718 
	C159.149826,66.166313 149.696289,65.972458 139.692078,65.972458 
	C139.692078,53.272118 139.692078,41.076096 139.692078,27.643101 
	C137.356308,29.370432 135.839233,30.235743 134.638855,31.421621 
	C126.790718,39.175076 118.806053,46.807560 111.305519,54.887573 
	C108.104286,58.336140 103.755516,61.130516 103.824753,67.099007 
	C104.074104,88.595673 103.873505,110.097305 104.015015,131.595932 
	C104.026367,133.320541 105.350975,135.036514 106.637192,137.361496 
M26.464117,69.666931 
	C26.312136,70.473206 26.028545,71.279297 26.027445,72.085777 
	C26.000996,91.484634 25.986328,110.883575 26.046129,130.282272 
	C26.049961,131.525284 26.672421,132.766388 27.355537,134.469513 
	C27.926033,135.232880 28.496529,135.996231 29.639460,137.363297 
	C31.252100,137.575500 32.862934,137.953171 34.477699,137.970825 
	C40.929253,138.041382 47.382030,137.997650 53.834354,138.000641 
	C60.995789,138.003937 60.996948,138.006042 60.999462,145.402466 
	C61.001377,151.027573 60.895374,156.655350 61.039993,162.276733 
	C61.123444,165.520584 61.609135,168.754074 62.304874,172.566055 
	C64.289612,171.438934 66.589798,170.644272 68.197060,169.119308 
	C72.228714,165.294067 75.944107,161.135757 79.791290,157.115768 
	C85.895287,150.737640 92.003326,144.363388 98.575348,137.307388 
	C98.714783,136.498703 98.975075,135.690155 98.975998,134.881317 
	C98.999825,113.848007 99.012062,92.814629 98.960030,71.781425 
	C98.956917,70.523949 98.402473,69.267830 97.634476,67.348007 
	C96.291367,66.898674 94.949806,66.063179 93.604927,66.057823 
	C72.845879,65.975075 52.085857,65.939583 31.328215,66.129410 
	C29.862692,66.142815 28.414043,68.001343 26.464117,69.666931 
z"/>
<path fill="#FEFAFA" opacity="1.000000" stroke="none" 
	d="
M29.067024,136.759598 
	C28.496529,135.996231 27.926033,135.232880 27.244129,133.773041 
	C27.074331,111.718346 27.015940,90.360123 26.957548,69.001900 
	C28.414043,68.001343 29.862692,66.142815 31.328215,66.129410 
	C52.085857,65.939583 72.845879,65.975075 93.604927,66.057823 
	C94.949806,66.063179 96.291367,66.898674 97.826050,68.146049 
	C98.048302,91.958549 98.078972,114.973015 98.109650,137.987488 
	C92.003326,144.363388 85.895287,150.737640 79.791290,157.115768 
	C75.944107,161.135757 72.228714,165.294067 68.197060,169.119308 
	C66.589798,170.644272 64.289612,171.438934 62.166943,171.813751 
	C62.029011,159.669067 62.029011,148.276688 62.029011,136.759598 
	C50.625996,136.759598 39.846512,136.759598 29.067024,136.759598 
M67.899246,165.819000 
	C68.478752,165.231781 69.064590,164.650665 69.636803,164.056427 
	C78.010422,155.360413 86.382233,146.662659 95.051323,137.073807 
	C95.081444,117.650635 95.126663,98.227448 95.093155,78.804382 
	C95.091621,77.915695 94.381416,77.028236 93.357109,76.308624 
	C88.120483,81.568726 82.784019,86.734131 77.678040,92.118134 
	C73.402603,96.626358 69.396454,101.389954 65.000809,106.938110 
	C65.000809,127.239754 65.000809,147.541397 65.000809,168.843994 
	C66.294273,167.335098 66.810760,166.732574 67.899246,165.819000 
z"/>
<path fill="#FCEDED" opacity="1.000000" stroke="none" 
	d="
M106.065308,136.756500 
	C105.350975,135.036514 104.026367,133.320541 104.015015,131.595932 
	C103.873505,110.097305 104.074104,88.595673 103.824753,67.099007 
	C103.755516,61.130516 108.104286,58.336140 111.305519,54.887573 
	C118.806053,46.807560 126.790718,39.175076 134.638855,31.421621 
	C135.839233,30.235743 137.356308,29.370432 139.692078,27.643101 
	C139.692078,41.076096 139.692078,53.272118 139.692078,65.972458 
	C149.696289,65.972458 159.149826,66.166313 168.589432,65.887718 
	C173.065796,65.755608 174.856369,67.059906 174.812027,71.770432 
	C174.626923,91.434959 174.793121,111.102676 174.641449,130.767776 
	C174.626694,132.679199 173.310699,134.580597 171.845551,136.637329 
	C149.416672,136.777512 127.740990,136.767014 106.065308,136.756500 
M107.457649,133.756134 
	C128.883545,133.756134 150.309448,133.756134 172.019165,133.756134 
	C172.019165,111.862541 172.019165,90.325989 172.019165,68.593445 
	C150.529434,68.593445 129.291534,68.593445 107.174377,68.959206 
	C107.143318,90.300514 107.112259,111.641815 107.457649,133.756134 
z"/>
<path fill="#E20000" opacity="1.000000" stroke="none" 
	d="
M98.342499,137.647430 
	C98.078972,114.973015 98.048302,91.958549 98.061111,68.477585 
	C98.402473,69.267830 98.956917,70.523949 98.960030,71.781425 
	C99.012062,92.814629 98.999825,113.848007 98.975998,134.881317 
	C98.975075,135.690155 98.714783,136.498703 98.342499,137.647430 
z"/>
<path fill="#E20000" opacity="1.000000" stroke="none" 
	d="
M29.353241,137.061447 
	C39.846512,136.759598 50.625996,136.759598 62.029011,136.759598 
	C62.029011,148.276688 62.029011,159.669067 61.971397,171.526825 
	C61.609135,168.754074 61.123444,165.520584 61.039993,162.276733 
	C60.895374,156.655350 61.001377,151.027573 60.999462,145.402466 
	C60.996948,138.006042 60.995789,138.003937 53.834354,138.000641 
	C47.382030,137.997650 40.929253,138.041382 34.477699,137.970825 
	C32.862934,137.953171 31.252100,137.575500 29.353241,137.061447 
z"/>
<path fill="#E20000" opacity="1.000000" stroke="none" 
	d="
M106.351250,137.058990 
	C127.740990,136.767014 149.416672,136.777512 171.557892,136.862366 
	C170.787155,137.289886 169.551834,137.946808 168.314407,137.950806 
	C148.710327,138.014267 129.105972,138.002838 109.501747,137.966049 
	C108.546516,137.964249 107.592026,137.571945 106.351250,137.058990 
z"/>
<path fill="#E20000" opacity="1.000000" stroke="none" 
	d="
M26.710833,69.334412 
	C27.015940,90.360123 27.074331,111.718346 27.069908,133.542480 
	C26.672421,132.766388 26.049961,131.525284 26.046129,130.282272 
	C25.986328,110.883575 26.000996,91.484634 26.027445,72.085777 
	C26.028545,71.279297 26.312136,70.473206 26.710833,69.334412 
z"/>
<path fill="#E30814" opacity="1.000000" stroke="none" 
	d="
M94.754471,137.965317 
	C86.382233,146.662659 78.010422,155.360413 69.636803,164.056427 
	C69.064590,164.650665 68.478752,165.231781 67.304123,165.672852 
	C66.473083,163.581100 66.039261,161.636200 66.032494,159.689804 
	C65.977074,143.752472 66.026169,127.814766 65.969009,111.877441 
	C65.962029,109.930977 65.514458,107.986084 65.271072,106.040466 
	C69.396454,101.389954 73.402603,96.626358 77.678040,92.118134 
	C82.784019,86.734131 88.120483,81.568726 93.682892,76.683800 
	C94.004845,95.590843 93.980507,114.122772 94.030243,132.654495 
	C94.034988,134.425415 94.502037,136.195068 94.754471,137.965317 
z"/>
<path fill="#E20000" opacity="1.000000" stroke="none" 
	d="
M65.135941,106.489288 
	C65.514458,107.986084 65.962029,109.930977 65.969009,111.877441 
	C66.026169,127.814766 65.977074,143.752472 66.032494,159.689804 
	C66.039261,161.636200 66.473083,163.581100 67.018120,165.828384 
	C66.810760,166.732574 66.294273,167.335098 65.000809,168.843994 
	C65.000809,147.541397 65.000809,127.239754 65.135941,106.489288 
z"/>
<path fill="#E20202" opacity="1.000000" stroke="none" 
	d="
M94.902893,137.519562 
	C94.502037,136.195068 94.034988,134.425415 94.030243,132.654495 
	C93.980507,114.122772 94.004845,95.590843 94.004974,76.599594 
	C94.381416,77.028236 95.091621,77.915695 95.093155,78.804382 
	C95.126663,98.227448 95.081444,117.650635 94.902893,137.519562 
z"/>
<path fill="#E30814" opacity="1.000000" stroke="none" 
	d="
M108.053642,68.593445 
	C129.291534,68.593445 150.529434,68.593445 172.019165,68.593445 
	C172.019165,90.325989 172.019165,111.862541 172.019165,133.756134 
	C150.309448,133.756134 128.883545,133.756134 107.508972,133.033966 
	C107.707481,130.505615 107.978363,128.699753 107.982803,126.893234 
	C108.030594,107.460030 108.036369,88.026726 108.053642,68.593445 
z"/>
<path fill="#E20000" opacity="1.000000" stroke="none" 
	d="
M107.614014,68.776321 
	C108.036369,88.026726 108.030594,107.460030 107.982803,126.893234 
	C107.978363,128.699753 107.707481,130.505615 107.320755,132.647461 
	C107.112259,111.641815 107.143318,90.300514 107.614014,68.776321 
z"/>
</svg>